<svg width="20" height="20" viewBox="0 0 20 20" fill="none" xmlns="http://www.w3.org/2000/svg">
<g clip-path="url(#clip0_8194_1063)">
<path d="M15.8334 15.8333H4.16669V16.6667C4.16669 16.8877 4.07889 17.0996 3.92261 17.2559C3.76633 17.4122 3.55437 17.5 3.33335 17.5H2.50002C2.27901 17.5 2.06704 17.4122 1.91076 17.2559C1.75448 17.0996 1.66669 16.8877 1.66669 16.6667V8.33333L3.73335 3.51C3.86196 3.21 4.07582 2.95437 4.3484 2.77482C4.62098 2.59527 4.94028 2.49971 5.26669 2.5H14.7334C15.0595 2.50004 15.3784 2.59575 15.6507 2.77528C15.9229 2.9548 16.1365 3.21026 16.265 3.51L18.3334 8.33333V16.6667C18.3334 16.8877 18.2456 17.0996 18.0893 17.2559C17.933 17.4122 17.721 17.5 17.5 17.5H16.6667C16.4457 17.5 16.2337 17.4122 16.0774 17.2559C15.9212 17.0996 15.8334 16.8877 15.8334 16.6667V15.8333ZM16.6667 10H3.33335V14.1667H16.6667V10ZM3.48002 8.33333H16.52L14.7342 4.16667H5.26669L3.48002 8.33333ZM5.41669 13.3333C5.08517 13.3333 4.76722 13.2016 4.5328 12.9672C4.29838 12.7328 4.16669 12.4149 4.16669 12.0833C4.16669 11.7518 4.29838 11.4339 4.5328 11.1995C4.76722 10.965 5.08517 10.8333 5.41669 10.8333C5.74821 10.8333 6.06615 10.965 6.30057 11.1995C6.53499 11.4339 6.66669 11.7518 6.66669 12.0833C6.66669 12.4149 6.53499 12.7328 6.30057 12.9672C6.06615 13.2016 5.74821 13.3333 5.41669 13.3333ZM14.5834 13.3333C14.2518 13.3333 13.9339 13.2016 13.6995 12.9672C13.4651 12.7328 13.3334 12.4149 13.3334 12.0833C13.3334 11.7518 13.4651 11.4339 13.6995 11.1995C13.9339 10.965 14.2518 10.8333 14.5834 10.8333C14.9149 10.8333 15.2328 10.965 15.4672 11.1995C15.7017 11.4339 15.8334 11.7518 15.8334 12.0833C15.8334 12.4149 15.7017 12.7328 15.4672 12.9672C15.2328 13.2016 14.9149 13.3333 14.5834 13.3333Z" fill="#29292E"/>
</g>
<defs>
<clipPath id="clip0_8194_1063">
<rect width="20" height="20" fill="white"/>
</clipPath>
</defs>
</svg>
