<svg width="60" height="60" viewBox="0 0 60 60" fill="none" xmlns="http://www.w3.org/2000/svg">
<path opacity="0.1" d="M11.1226 42.5228C-0.615638 19.5943 18.3516 1.71553 48.8868 9.03134C51.0403 9.54726 52.5205 11.5248 52.413 13.7365C51.4658 33.2201 42.5855 44.2621 15.3316 44.9646C13.5759 45.0098 11.923 44.0861 11.1226 42.5228Z" fill="#323232"/>
<path d="M11.1226 42.5228C-0.615638 19.5943 18.3516 1.71553 48.8868 9.03134C51.0403 9.54726 52.5205 11.5248 52.413 13.7365C51.4658 33.2201 42.5855 44.2621 15.3316 44.9646C13.5759 45.0098 11.923 44.0861 11.1226 42.5228Z" stroke="#323232" stroke-width="5" stroke-linecap="round" stroke-linejoin="round"/>
<path d="M9.99969 52.5001C13.7498 38.7501 14.9997 31.2501 29.9995 25" stroke="#323232" stroke-width="5" stroke-linecap="round" stroke-linejoin="round"/>
</svg>
