<svg width="32" height="32" viewBox="0 0 32 32" fill="none" xmlns="http://www.w3.org/2000/svg">
<g clip-path="url(#clip0_8100_1061)">
<path fill-rule="evenodd" clip-rule="evenodd" d="M15.998 32C7.17617 32 0 24.8217 0 16C0 7.17835 7.17617 0 15.998 0C24.8218 0 32 7.17835 32 16C32 24.8217 24.8218 32 15.998 32ZM16 4C9.38166 4 4 9.38303 4 16C4 22.617 9.38362 28 16 28C22.6164 28 28 22.617 28 16C28 9.38303 22.6183 4 16 4Z" fill="#47474D"/>
<path fill-rule="evenodd" clip-rule="evenodd" d="M15.984 12C11.352 12 7.78801 13.594 6.06201 16.692C6.13601 17.638 6.37001 18.548 6.73401 19.396C9.17601 18.092 13.836 23.056 12.37 25.266C13.53 25.674 14.652 25.976 15.964 25.976C17.254 25.976 18.598 25.74 19.738 25.346C18.27 23.136 22.788 18.276 25.246 19.608C25.622 18.732 25.864 17.796 25.934 16.816C24.19 13.75 20.586 12 15.984 12ZM16.004 18.312C14.754 18.312 13.75 17.292 13.75 16.03C13.75 14.768 14.754 13.748 16.004 13.748C17.242 13.748 18.25 14.768 18.25 16.03C18.25 17.292 17.242 18.312 16.004 18.312Z" fill="#47474D"/>
</g>
<defs>
<clipPath id="clip0_8100_1061">
<rect width="32" height="32" fill="white"/>
</clipPath>
</defs>
</svg>
