<svg width="20" height="20" viewBox="0 0 20 20" fill="none" xmlns="http://www.w3.org/2000/svg">
<path d="M10 0C15.523 0 20 4.477 20 10C20 15.523 15.523 20 10 20C4.477 20 0 15.523 0 10C0 4.477 4.477 0 10 0ZM6 11L2.062 11.001C2.28479 12.7632 3.08743 14.4013 4.3435 15.6571C5.59957 16.9131 7.23779 17.7154 9 17.938V14C8.20436 14 7.44129 13.6839 6.87871 13.1213C6.31607 12.5587 6 11.7956 6 11ZM17.938 11.001L14 11C14 11.7956 13.6839 12.5587 13.1213 13.1213C12.5587 13.6839 11.7956 14 11 14L11.001 17.938C12.7631 17.7153 14.401 16.9128 15.6569 15.6569C16.9128 14.401 17.7153 12.7631 17.938 11.001ZM12 10H8V11C8 11.2652 8.10536 11.5196 8.29293 11.7071C8.48043 11.8946 8.73479 12 9 12H11C11.2652 12 11.5196 11.8946 11.7071 11.7071C11.8946 11.5196 12 11.2652 12 11V10ZM10 2C8.05136 2.00004 6.16979 2.71119 4.70829 4C3.24674 5.28882 2.30579 7.06671 2.062 9H6C6 8.73479 6.10536 8.48043 6.29293 8.29293C6.48043 8.10536 6.73479 8 7 8H13C13.2652 8 13.5196 8.10536 13.7071 8.29293C13.8946 8.48043 14 8.73479 14 9H17.938C17.6942 7.06671 16.7533 5.28882 15.2917 4C13.8302 2.71119 11.9486 2.00004 10 2Z" fill="#29292E"/>
</svg>
